<svg width="214" height="214" viewBox="0 0 214 214" fill="none" xmlns="http://www.w3.org/2000/svg">
<g clip-path="url(#clip0_62_2)">
<path d="M106.744 210.29C163.942 210.29 210.311 163.921 210.311 106.723C210.311 49.5245 163.942 3.15601 106.744 3.15601C49.5453 3.15601 3.17676 49.5245 3.17676 106.723C3.17676 163.921 49.5453 210.29 106.744 210.29Z" fill="white"/>
<path d="M904.377 118.488H928.34V150.078C927.008 150.345 925.475 150.61 923.746 150.874C922.281 151.142 920.517 151.341 918.453 151.472C916.386 151.606 914.09 151.671 911.562 151.671C905.301 151.671 899.54 150.477 894.279 148.088C889.018 145.698 884.491 142.413 880.695 138.232C876.901 134.05 873.937 129.042 871.805 123.199C869.674 117.359 868.609 110.923 868.609 103.886C868.609 96.453 869.835 89.718 872.294 83.677C874.748 77.638 878.165 72.496 882.547 68.246C886.927 63.999 892.07 60.714 897.979 58.39C903.883 56.069 910.223 54.905 916.993 54.905C920.576 54.905 923.861 55.073 926.848 55.403C929.835 55.736 932.453 56.1 934.713 56.499C937.233 57.031 939.621 57.494 941.88 57.893L948.451 39.177C945.395 38.116 942.01 37.186 938.296 36.39C935.111 35.727 931.294 35.064 926.848 34.399C922.4 33.736 917.39 33.403 911.814 33.403C902.388 33.403 893.463 35.03 885.036 38.281C876.605 41.535 869.207 46.214 862.835 52.318C856.465 58.425 851.417 65.793 847.703 74.419C843.985 83.049 842.128 92.737 842.128 103.489C842.128 114.241 843.787 123.932 847.106 132.559C850.423 141.189 855.001 148.556 860.844 154.66C866.685 160.767 873.553 165.446 881.453 168.697C889.347 171.948 897.811 173.575 906.839 173.575C912.415 173.575 917.92 173.077 923.365 172.082C928.808 171.086 933.652 169.992 937.9 168.797C942.743 167.405 947.526 165.81 952.237 164.018V98.276H904.379V118.488H904.377ZM1014.16 72.823C1009.77 72.823 1005.36 73.349 1000.91 74.401C996.465 75.452 992.518 76.631 989.068 77.944C984.818 79.387 980.836 81.03 977.121 82.865L982.498 97.114C985.299 95.9154 988.155 94.8522 991.058 93.928C993.578 93.132 996.401 92.369 999.521 91.638C1002.62 90.9112 1005.79 90.5437 1008.98 90.543C1015.22 90.543 1019.56 92.151 1022.02 95.368C1024.47 98.585 1025.7 103.407 1025.7 109.841V111.649C1020.26 111.649 1014.29 111.982 1007.78 112.644C1001.28 113.311 995.206 114.735 989.566 116.925C983.922 119.115 979.176 122.335 975.328 126.582C971.476 130.832 969.555 136.606 969.555 143.904C969.555 148.552 970.382 152.733 972.043 156.448C973.702 160.165 975.859 163.286 978.514 165.806C981.17 168.329 984.154 170.255 987.474 171.58C990.791 172.906 994.11 173.571 997.43 173.571C1001.14 173.571 1004.53 173.005 1007.58 171.879C1010.64 170.753 1013.32 169.424 1015.65 167.897C1017.97 166.373 1019.96 164.845 1021.62 163.317C1023.28 161.793 1024.57 160.564 1025.5 159.633H1025.9L1027.69 171.181H1048.4V107.267C1048.4 96.385 1045.45 87.922 1039.54 81.881C1033.63 75.844 1025.17 72.823 1014.16 72.823ZM1025.7 144.9C1023.82 146.907 1021.68 148.649 1019.33 150.077C1017.34 151.405 1015.05 152.599 1012.46 153.66C1009.91 154.717 1007.17 155.258 1004.4 155.253C1001.21 155.253 998.291 154.191 995.637 152.067C992.98 149.945 991.656 146.89 991.656 142.908C991.656 139.324 992.816 136.437 995.14 134.246C997.462 132.056 1000.38 130.398 1003.9 129.268C1007.42 128.142 1011.13 127.376 1015.05 126.978C1018.97 126.58 1022.52 126.381 1025.7 126.381L1025.7 144.9ZM1072.29 24.639H1096.19V171.182H1072.29V24.639ZM1133.61 27.227C1129.76 27.227 1126.58 28.556 1124.06 31.209C1121.53 33.866 1120.28 37.117 1120.28 40.965C1120.28 44.816 1121.53 48.067 1124.06 50.721C1126.58 53.378 1129.76 54.703 1133.61 54.703C1137.46 54.703 1140.68 53.378 1143.27 50.721C1145.86 48.067 1147.15 44.816 1147.15 40.965C1147.15 37.116 1145.86 33.865 1143.27 31.209C1140.68 28.556 1137.46 27.227 1133.61 27.227ZM1121.67 75.212H1145.56V171.182H1121.67V75.212ZM1230.18 151.67C1228.19 152.202 1225.9 152.666 1223.31 153.064C1220.71 153.463 1218.08 153.663 1215.45 153.661C1207.88 153.661 1201.77 151.073 1197.13 145.896C1192.48 140.719 1190.16 133.884 1190.16 125.388C1190.16 120.609 1190.92 116.198 1192.45 112.147C1193.97 108.1 1196.07 104.581 1198.72 101.594C1201.38 98.608 1204.56 96.287 1208.28 94.625C1211.99 92.967 1216.04 92.136 1220.42 92.136C1222.41 92.136 1224.24 92.27 1225.9 92.534C1227.56 92.802 1228.99 93.067 1230.18 93.331L1234.16 94.326L1240.33 78.199C1237.64 77.2582 1234.92 76.3951 1232.17 75.611C1229.4 74.8926 1226.61 74.2616 1223.81 73.719C1220.75 73.122 1217.5 72.823 1214.05 72.823C1206.75 72.823 1200.08 74.285 1194.04 77.203C1188 80.124 1182.82 84.072 1178.51 89.05C1174.2 94.028 1170.85 99.77 1168.46 106.273C1166.07 112.778 1164.87 119.682 1164.87 126.98C1164.87 134.018 1165.97 140.389 1168.16 146.095C1170.35 151.803 1173.3 156.682 1177.02 160.729C1180.68 164.737 1185.11 167.955 1190.06 170.187C1195.04 172.442 1200.31 173.571 1205.89 173.571C1210.8 173.571 1215.51 172.974 1220.02 171.779C1224.54 170.585 1228.52 169.259 1231.97 167.797C1235.95 166.074 1239.67 164.083 1243.12 161.824L1236.55 149.479C1234.69 150.41 1232.57 151.141 1230.18 151.67ZM1270.4 27.227C1266.55 27.227 1263.36 28.556 1260.84 31.209C1258.32 33.866 1257.06 37.117 1257.06 40.965C1257.06 44.816 1258.32 48.067 1260.84 50.721C1263.36 53.378 1266.55 54.703 1270.4 54.703C1274.25 54.703 1277.47 53.378 1280.05 50.721C1282.64 48.067 1283.94 44.816 1283.94 40.965C1283.94 37.116 1282.64 33.865 1280.05 31.209C1277.47 28.556 1274.25 27.227 1270.4 27.227ZM1258.45 75.212H1282.35V171.182H1258.45V75.212ZM1370.84 81.883C1364.94 75.844 1356.47 72.823 1345.46 72.823C1341.08 72.823 1336.66 73.349 1332.22 74.401C1327.77 75.452 1323.82 76.631 1320.37 77.944C1316.12 79.387 1312.14 81.03 1308.43 82.865L1313.8 97.114C1316.6 95.9154 1319.46 94.8522 1322.36 93.928C1324.88 93.132 1327.71 92.369 1330.83 91.638C1333.93 90.9112 1337.1 90.5437 1340.28 90.543C1346.52 90.543 1350.87 92.151 1353.32 95.368C1355.78 98.585 1357.01 103.407 1357.01 109.841V111.649C1351.56 111.649 1345.59 111.982 1339.09 112.644C1332.58 113.311 1326.51 114.735 1320.87 116.925C1315.23 119.115 1310.48 122.335 1306.63 126.582C1302.78 130.832 1300.86 136.606 1300.86 143.904C1300.86 148.552 1301.69 152.733 1303.35 156.448C1305.01 160.165 1307.16 163.286 1309.82 165.806C1312.47 168.329 1315.46 170.255 1318.78 171.58C1322.1 172.906 1325.41 173.571 1328.73 173.571C1332.45 173.571 1335.83 173.005 1338.89 171.879C1341.94 170.753 1344.63 169.424 1346.95 167.897C1349.27 166.373 1351.26 164.845 1352.93 163.317C1354.58 161.793 1355.88 160.564 1356.81 159.633H1357.21L1359 171.181H1379.71V107.267C1379.71 96.387 1376.75 87.924 1370.84 81.883ZM1357.01 144.9C1355.13 146.907 1352.98 148.649 1350.64 150.077C1348.64 151.405 1346.35 152.599 1343.77 153.66C1341.21 154.717 1338.47 155.258 1335.7 155.253C1332.52 155.253 1329.6 154.191 1326.94 152.067C1324.28 149.945 1322.96 146.89 1322.96 142.908C1322.96 139.324 1324.12 136.437 1326.44 134.246C1328.77 132.056 1331.69 130.398 1335.2 129.268C1338.72 128.142 1342.44 127.376 1346.35 126.978C1350.27 126.58 1353.82 126.381 1357.01 126.381L1357.01 144.9ZM335.956 118.488H359.92V150.078C358.588 150.345 357.055 150.61 355.326 150.874C353.861 151.142 352.097 151.341 350.032 151.472C347.965 151.606 345.669 151.671 343.141 151.671C336.88 151.671 331.119 150.477 325.858 148.088C320.597 145.698 316.071 142.413 312.275 138.232C308.481 134.05 305.516 129.042 303.384 123.199C301.253 117.359 300.188 110.923 300.188 103.886C300.188 96.453 301.413 89.718 303.872 83.677C306.326 77.638 309.745 72.496 314.127 68.246C318.507 63.999 323.649 60.714 329.558 58.39C335.462 56.069 341.802 54.905 348.573 54.905C352.156 54.905 355.441 55.073 358.428 55.403C361.415 55.736 364.033 56.1 366.293 56.499C368.813 57.031 371.202 57.494 373.461 57.893L380.031 39.177C376.975 38.116 373.59 37.186 369.875 36.39C366.69 35.727 362.873 35.064 358.427 34.399C353.979 33.736 348.97 33.403 343.394 33.403C333.968 33.403 325.042 35.03 316.615 38.281C308.184 41.535 300.786 46.214 294.413 52.318C288.043 58.425 282.997 65.793 279.282 74.419C275.563 83.049 273.706 92.737 273.706 103.489C273.706 114.241 275.365 123.932 278.684 132.559C282.001 141.189 286.58 148.556 292.423 154.66C298.264 160.767 305.132 165.446 313.032 168.697C320.926 171.948 329.389 173.575 338.417 173.575C343.993 173.575 349.498 173.077 354.943 172.082C360.386 171.086 365.23 169.992 369.478 168.797C374.321 167.405 379.104 165.81 383.815 164.018V98.276H335.957V118.488H335.956ZM538.28 142.535C535.799 144.235 533.207 145.765 530.521 147.117C528.25 148.312 525.727 149.375 522.953 150.301C520.177 151.232 517.466 151.695 514.817 151.695C510.022 151.695 506.552 150.138 504.409 147.016C502.262 143.898 501.193 139.745 501.193 134.568V75.214H478.487V137.954C478.487 144.326 479.084 149.604 480.284 153.789C481.481 157.969 483.594 161.788 486.622 165.241C488.892 167.763 491.637 169.792 494.854 171.318C498.071 172.839 501.696 173.607 505.734 173.607C509.518 173.607 513.332 172.809 517.181 171.217C521.027 169.625 524.527 167.901 527.682 166.04C531.379 163.755 534.919 161.225 538.279 158.468H538.658L540.172 171.217H560.986V75.215H538.28V142.535ZM459.221 72.92C458.246 72.8537 457.268 72.8214 456.289 72.823C451.999 72.823 448.215 73.815 444.937 75.808C441.655 77.801 438.817 79.927 436.422 82.184C433.646 84.839 431.248 87.894 429.231 91.343H428.853L427.339 75.212H406.336V171.214H429.042V110.066C430.05 108.607 431.406 107.05 433.109 105.387C434.812 103.729 436.735 102.168 438.882 100.704C441.07 99.2189 443.419 97.9839 445.883 97.022C448.413 96.0241 451.11 95.5168 453.83 95.527C454.587 95.527 455.216 95.562 455.721 95.624C456.224 95.694 456.668 95.725 457.047 95.725H458.182L463.859 73.615C463.102 73.487 462.345 73.35 461.588 73.218C460.955 73.087 460.168 72.991 459.221 72.92ZM668.715 86.907C665.598 82.532 661.853 79.12 657.478 76.666C653.102 74.212 648.33 72.985 643.158 72.985C639.311 72.985 635.432 73.718 631.523 75.174C627.611 76.635 623.93 78.29 620.484 80.144C616.519 82.2594 612.669 84.583 608.95 87.105H608.552L606.762 75.372H584.883V223.543H608.75V163.479C611.267 165.465 614.051 167.191 617.104 168.648C619.755 169.977 622.738 171.133 626.054 172.131C629.367 173.124 632.947 173.623 636.794 173.623C643.288 173.623 649.125 172.06 654.296 168.948C659.466 165.832 663.842 161.788 667.422 156.813C671.002 151.843 673.753 146.272 675.677 140.11C677.597 133.943 678.56 127.812 678.56 121.712C678.56 114.821 677.696 108.386 675.974 102.422C674.248 96.454 671.828 91.281 668.715 86.907ZM651.71 133.547C650.516 137.326 648.825 140.574 646.638 143.294C644.451 146.013 641.732 148.167 638.484 149.756C635.233 151.345 631.622 152.144 627.645 152.144C625.41 152.147 623.18 151.945 620.982 151.543C618.795 151.146 616.771 150.621 614.916 149.954C612.794 149.425 610.729 148.692 608.75 147.765V103.415C611.478 101.852 614.265 100.393 617.104 99.041C619.639 97.9221 622.228 96.9262 624.859 96.057C627.644 95.13 630.296 94.662 632.815 94.662C639.18 94.662 644.217 97.183 647.93 102.224C651.641 107.26 653.5 113.625 653.5 121.315C653.5 125.69 652.903 129.768 651.71 133.547ZM772.648 87.657C768.8 83.077 764.008 79.462 758.271 76.804C752.532 74.15 745.945 72.824 738.505 72.824C731.441 72.824 725.075 74.049 719.4 76.505C713.726 78.964 708.902 82.412 704.93 86.86C700.958 91.308 697.898 96.584 695.755 102.69C693.609 108.795 692.539 115.5 692.539 122.8C692.539 129.836 693.514 136.439 695.471 142.611C697.425 148.787 700.324 154.16 704.172 158.74C708.018 163.321 712.809 166.939 718.549 169.593C724.286 172.247 730.873 173.573 738.315 173.573C745.376 173.573 751.745 172.344 757.419 169.888C763.094 167.437 767.919 163.986 771.89 159.538C775.862 155.09 778.919 149.813 781.064 143.708C783.206 137.603 784.279 130.898 784.279 123.598C784.279 116.563 783.301 109.959 781.348 103.784C779.392 97.61 776.493 92.237 772.648 87.657ZM754.487 147.29C750.639 152.734 745.314 155.454 738.504 155.454C732.197 155.454 726.966 152.566 722.804 146.792C718.642 141.017 716.56 133.021 716.56 122.798C716.56 112.444 718.514 104.548 722.424 99.104C726.331 93.665 731.694 90.94 738.503 90.94C744.807 90.94 750.009 93.827 754.109 99.602C758.205 105.377 760.257 113.373 760.257 123.596C760.258 133.947 758.333 141.846 754.487 147.29ZM106.744 0.457031C48.0545 0.457031 0.478516 48.034 0.478516 106.723C0.478516 165.412 48.0545 212.989 106.744 212.989C165.433 212.989 213.01 165.412 213.01 106.723C213.01 48.034 165.432 0.457031 106.744 0.457031ZM142.428 72.827C142.254 72.8262 142.085 72.7698 141.946 72.666C141.517 72.413 139.629 71.367 135.876 70.225C131.228 68.806 123.118 67.068 110.705 66.757C111.402 80.031 113.761 87.71 115.112 91.105L115.287 91.514C116.07 93.342 118.263 97.705 121.704 98.705C121.978 98.786 122.184 99.01 122.259 99.286C122.296 99.4189 122.297 99.5594 122.263 99.693L107.612 199.369C107.583 199.568 107.485 199.751 107.333 199.883C107.182 200.015 106.988 200.089 106.787 200.09C106.587 200.088 106.394 200.015 106.243 199.884C106.092 199.753 105.993 199.572 105.964 199.374L91.2375 99.746C91.204 99.6415 91.1918 99.5314 91.2015 99.4221C91.2112 99.3128 91.2427 99.2065 91.2942 99.1096C91.3456 99.0127 91.416 98.927 91.501 98.8577C91.5861 98.7884 91.6842 98.7368 91.7895 98.706C95.2165 97.709 97.4015 93.37 98.1775 91.562C99.5925 88.123 102.045 80.375 102.779 66.751C90.3475 67.059 82.2525 68.796 77.6185 70.218C73.4085 71.499 71.5625 72.677 71.5445 72.689C71.4537 72.7474 71.352 72.7869 71.2455 72.805C71.184 72.8198 71.1208 72.8272 71.0575 72.827C65.6095 72.827 61.1785 68.396 61.1785 62.95C61.1785 57.504 65.6095 53.072 71.0575 53.072C71.1085 53.072 71.1615 53.08 71.2145 53.092C71.3293 53.1093 71.4393 53.1501 71.5375 53.212C71.5555 53.224 73.4105 54.386 77.5955 55.674C82.2695 57.102 90.4355 58.849 102.942 59.153C102.624 46.715 100.886 38.644 99.4635 34.034C98.2895 30.239 97.2505 28.422 96.9955 28.002C96.9386 27.9055 96.9029 27.798 96.8906 27.6867C96.8784 27.5753 96.8899 27.4626 96.9245 27.356C96.9736 24.8222 98.006 22.4066 99.8035 20.62C100.714 19.7044 101.797 18.9783 102.99 18.484C104.182 17.9896 105.461 17.7368 106.753 17.74C108.241 17.74 109.727 18.067 111.173 18.714C114.425 20.168 116.539 23.594 116.579 27.462C116.609 27.6719 116.564 27.8858 116.453 28.066C116.407 28.14 115.305 29.924 114.034 34.036C112.612 38.656 110.87 46.734 110.549 59.158C123.05 58.866 131.189 57.133 135.842 55.713C139.665 54.539 141.54 53.476 141.905 53.258C142.051 53.1379 142.235 53.0722 142.424 53.072C147.87 53.072 152.302 57.504 152.302 62.95C152.305 68.396 147.874 72.827 142.428 72.827Z" fill="#FA6400"/>
</g>
<defs>
<clipPath id="clip0_62_2">
<rect width="214" height="214" fill="white"/>
</clipPath>
</defs>
</svg>
